<svg width="126" height="31" viewBox="0 0 126 31" fill="none" xmlns="http://www.w3.org/2000/svg">
<path d="M0.12 30V0.599999H11.72V5.04H4.98V12.76H9.82V17.48H4.98V25.56H11.72V30H0.12ZM16.8378 30L22.5978 14.56L16.9378 0.599999H21.6778L24.6778 8.28L24.8578 8.72H25.0778L25.2778 8.28L28.2778 0.599999H33.0178L27.3378 14.56L33.1178 30H28.3578L25.1978 20.84L25.0778 20.36H24.8578L24.7378 20.84L21.5978 30H16.8378ZM42.2947 30V5.04H37.3547V0.599999H52.0747V5.04H47.1347V30H42.2947ZM57.8231 30V0.599999H62.6831V30H57.8231ZM70.2997 30V0.599999H74.6997L79.8597 16.74L80.3997 18.76H80.7397L80.7597 16.84V0.599999H85.1797V30H80.7997L75.6197 13.96L75.0997 12.06H74.7397L74.7197 13.96V30H70.2997ZM99.1553 30.32C97.262 30.32 95.682 29.7333 94.4153 28.56C93.1486 27.3867 92.5153 25.78 92.5153 23.74V6.86C92.5153 4.76667 93.142 3.14667 94.3953 2C95.6486 0.853332 97.2553 0.279999 99.2153 0.279999C101.322 0.279999 102.969 0.899999 104.155 2.14C105.355 3.38 105.955 4.95333 105.955 6.86V10.68H101.495V6.86C101.495 6.08667 101.309 5.5 100.935 5.1C100.575 4.68667 100.082 4.48 99.4553 4.48C98.762 4.48 98.2286 4.70667 97.8553 5.16C97.4953 5.6 97.3153 6.19333 97.3153 6.94V23.74C97.3153 24.3933 97.4953 24.9533 97.8553 25.42C98.2286 25.8867 98.782 26.12 99.5153 26.12C100.182 26.12 100.649 25.9533 100.915 25.62C101.195 25.2867 101.362 24.9267 101.415 24.54C101.469 24.1533 101.495 23.8867 101.495 23.74V19.92H105.955V23.74C105.955 24.9133 105.675 26 105.115 27C104.569 28 103.789 28.8067 102.775 29.42C101.762 30.02 100.555 30.32 99.1553 30.32ZM116.068 30V5.04H111.128V0.599999H125.848V5.04H120.908V30H116.068Z" fill="white"/>
</svg>
